<svg width="50" height="50" viewBox="0 0 50 50" fill="none" xmlns="http://www.w3.org/2000/svg">
<g id="clarity:avatar-line">
<path id="Vector" d="M25.0001 23.611C26.9229 23.611 28.8026 23.0408 30.4014 21.9725C32.0002 20.9042 33.2464 19.3858 33.9822 17.6093C34.7181 15.8328 34.9106 13.8779 34.5355 11.992C34.1603 10.1061 33.2344 8.37376 31.8747 7.01408C30.515 5.6544 28.7827 4.72845 26.8968 4.35332C25.0108 3.97818 23.056 4.17072 21.2795 4.90657C19.503 5.64242 17.9846 6.88854 16.9163 8.48735C15.848 10.0862 15.2778 11.9659 15.2778 13.8887C15.2778 16.4672 16.3021 18.9401 18.1254 20.7634C19.9487 22.5866 22.4216 23.611 25.0001 23.611ZM25.0001 6.94429C26.3735 6.94429 27.7162 7.35157 28.8582 8.11464C30.0002 8.8777 30.8903 9.96228 31.4159 11.2312C31.9415 12.5001 32.079 13.8964 31.8111 15.2435C31.5431 16.5906 30.8817 17.828 29.9105 18.7992C28.9393 19.7704 27.7019 20.4318 26.3548 20.6997C25.0078 20.9677 23.6115 20.8302 22.3425 20.3046C21.0736 19.779 19.989 18.8889 19.226 17.7469C18.4629 16.6048 18.0556 15.2622 18.0556 13.8887C18.0556 12.0469 18.7873 10.2806 20.0896 8.97827C21.3919 7.67593 23.1583 6.94429 25.0001 6.94429Z" fill="black"/>
<path id="Vector_2" d="M42.3193 33.8474C40.092 31.4932 37.4079 29.6181 34.4312 28.3365C31.4545 27.055 28.2477 26.394 25.0068 26.394C21.766 26.394 18.5592 27.055 15.5825 28.3365C12.6058 29.6181 9.92169 31.4932 7.69434 33.8474C7.21144 34.3631 6.94324 35.0436 6.94434 35.7501V43.0557C6.94434 43.7924 7.237 44.4989 7.75793 45.0199C8.27887 45.5408 8.9854 45.8335 9.72212 45.8335H40.2777C41.0144 45.8335 41.7209 45.5408 42.2419 45.0199C42.7628 44.4989 43.0554 43.7924 43.0554 43.0557V35.7501C43.0603 35.0455 42.7972 34.3653 42.3193 33.8474ZM40.2777 43.0557H9.72212V35.7362C11.6905 33.6636 14.06 32.0131 16.6865 30.8853C19.313 29.7574 22.1415 29.1758 24.9999 29.1758C27.8583 29.1758 30.6868 29.7574 33.3133 30.8853C35.9398 32.0131 38.3093 33.6636 40.2777 35.7362V43.0557Z" fill="black"/>
</g>
</svg>
