<svg width="812" height="683" viewBox="0 0 812 683" fill="none" xmlns="http://www.w3.org/2000/svg">
<path d="M505.118 631.576C517.237 639.698 531.046 680.756 531.046 680.756C531.046 680.756 487.82 683.574 475.705 675.456C472.822 673.526 470.348 671.046 468.424 668.159C466.499 665.272 465.163 662.034 464.49 658.63C463.818 655.227 463.822 651.724 464.504 648.322C465.185 644.92 466.531 641.686 468.462 638.804C470.394 635.922 472.875 633.449 475.763 631.525C478.65 629.602 481.889 628.267 485.293 627.596C488.697 626.925 492.2 626.931 495.601 627.614C499.003 628.297 502.237 629.643 505.118 631.576Z" fill="#F1F1F1"/>
<path d="M531.538 680.447L530.861 680.987C506.16 649.999 468.885 639.296 468.512 639.191L468.745 638.357C469.121 638.462 506.658 649.234 531.538 680.447Z" fill="white"/>
<path d="M569.934 615.196C569.161 635.373 530.804 681.45 530.804 681.45C530.804 681.45 496.105 632.561 496.875 612.391C497.247 602.703 501.452 593.559 508.566 586.972C515.68 580.384 525.119 576.892 534.807 577.264C544.495 577.636 553.639 581.842 560.226 588.955C566.814 596.069 570.306 605.508 569.934 615.196Z" fill="#F1F1F1"/>
<path d="M531.526 681.805L530.398 681.399C548.981 629.798 534.534 578.105 534.386 577.589L535.538 577.259C535.687 577.778 550.244 629.829 531.526 681.805Z" fill="white"/>
<path d="M432.206 500.39H103.469C97.6124 500.383 91.9976 498.053 87.8563 493.912C83.715 489.771 81.3855 484.156 81.3789 478.299V102.618C81.3855 96.7615 83.715 91.1466 87.8563 87.0053C91.9976 82.864 97.6124 80.5345 103.469 80.5278H432.206C438.063 80.5344 443.678 82.8639 447.819 87.0052C451.96 91.1466 454.29 96.7615 454.297 102.618V478.299C454.29 484.156 451.96 489.771 447.819 493.912C443.678 498.054 438.063 500.383 432.206 500.39Z" fill="#E6E6E6"/>
<path d="M416.845 481.979H118.831C113.63 481.973 108.645 479.904 104.968 476.227C101.291 472.55 99.2227 467.565 99.2168 462.365V118.553C99.2227 113.353 101.291 108.367 104.968 104.69C108.645 101.013 113.63 98.9449 118.831 98.939H416.845C422.046 98.9448 427.031 101.013 430.708 104.69C434.385 108.367 436.453 113.353 436.459 118.553V462.365C436.453 467.565 434.385 472.55 430.708 476.227C427.031 479.904 422.046 481.973 416.845 481.979Z" fill="white"/>
<path d="M404.99 147.873H254.65C254.005 147.874 253.367 147.748 252.771 147.502C252.176 147.256 251.634 146.895 251.178 146.439C250.722 145.984 250.36 145.443 250.114 144.848C249.867 144.253 249.74 143.614 249.74 142.97C249.74 142.326 249.867 141.687 250.114 141.092C250.36 140.497 250.722 139.956 251.178 139.501C251.634 139.045 252.176 138.684 252.771 138.438C253.367 138.192 254.005 138.066 254.65 138.067H404.99C405.634 138.066 406.272 138.192 406.868 138.438C407.464 138.684 408.005 139.045 408.461 139.501C408.917 139.956 409.279 140.497 409.526 141.092C409.773 141.687 409.9 142.326 409.9 142.97C409.9 143.614 409.773 144.253 409.526 144.848C409.279 145.443 408.917 145.984 408.461 146.439C408.005 146.895 407.464 147.256 406.868 147.502C406.272 147.748 405.634 147.874 404.99 147.873Z" fill="#E4E4E4"/>
<path d="M404.99 167.248H254.65C253.349 167.248 252.102 166.731 251.183 165.811C250.263 164.892 249.747 163.645 249.747 162.344C249.747 161.044 250.263 159.797 251.183 158.877C252.102 157.958 253.349 157.441 254.65 157.441H404.99C406.29 157.441 407.537 157.958 408.457 158.877C409.376 159.797 409.893 161.044 409.893 162.344C409.893 163.645 409.376 164.892 408.457 165.811C407.537 166.731 406.29 167.248 404.99 167.248Z" fill="#E4E4E4"/>
<path d="M319.819 186.622H254.65C253.349 186.622 252.102 186.105 251.183 185.186C250.263 184.266 249.747 183.019 249.747 181.719C249.747 180.418 250.263 179.171 251.183 178.252C252.102 177.332 253.349 176.815 254.65 176.815H319.819C321.119 176.815 322.366 177.332 323.286 178.252C324.205 179.171 324.722 180.418 324.722 181.719C324.722 183.019 324.205 184.266 323.286 185.186C322.366 186.105 321.119 186.622 319.819 186.622Z" fill="#E4E4E4"/>
<path d="M386.86 264.873H149.52C148.876 264.874 148.238 264.748 147.642 264.502C147.046 264.256 146.505 263.895 146.049 263.439C145.593 262.984 145.231 262.443 144.984 261.848C144.737 261.253 144.61 260.614 144.61 259.97C144.61 259.326 144.737 258.687 144.984 258.092C145.231 257.497 145.593 256.956 146.049 256.5C146.505 256.045 147.046 255.684 147.642 255.438C148.238 255.192 148.876 255.066 149.52 255.067H386.86C387.505 255.066 388.143 255.192 388.739 255.438C389.334 255.684 389.876 256.045 390.332 256.5C390.788 256.956 391.15 257.497 391.396 258.092C391.643 258.687 391.77 259.326 391.77 259.97C391.77 260.614 391.643 261.253 391.396 261.848C391.15 262.443 390.788 262.984 390.332 263.439C389.876 263.895 389.334 264.256 388.739 264.502C388.143 264.748 387.505 264.874 386.86 264.873Z" fill="#E4E4E4"/>
<path d="M386.86 284.248H149.521C148.22 284.248 146.973 283.731 146.053 282.811C145.134 281.892 144.617 280.645 144.617 279.344C144.617 278.044 145.134 276.797 146.053 275.877C146.973 274.958 148.22 274.441 149.521 274.441H386.86C388.161 274.441 389.408 274.958 390.327 275.877C391.247 276.797 391.764 278.044 391.764 279.344C391.764 280.645 391.247 281.892 390.327 282.811C389.408 283.731 388.161 284.248 386.86 284.248Z" fill="#E4E4E4"/>
<path d="M386.86 328.227H149.52C148.22 328.227 146.973 327.71 146.053 326.791C145.134 325.871 144.617 324.624 144.617 323.324C144.617 322.023 145.134 320.776 146.053 319.857C146.973 318.937 148.22 318.421 149.52 318.421H386.86C388.16 318.421 389.408 318.937 390.327 319.857C391.247 320.776 391.763 322.023 391.763 323.324C391.763 324.624 391.247 325.871 390.327 326.791C389.408 327.71 388.16 328.227 386.86 328.227Z" fill="#E4E4E4"/>
<path d="M386.86 347.601H149.521C148.22 347.601 146.973 347.085 146.053 346.165C145.134 345.246 144.617 343.998 144.617 342.698C144.617 341.398 145.134 340.15 146.053 339.231C146.973 338.311 148.22 337.795 149.521 337.795H386.86C388.161 337.795 389.408 338.311 390.327 339.231C391.247 340.15 391.764 341.398 391.764 342.698C391.764 343.998 391.247 345.246 390.327 346.165C389.408 347.085 388.161 347.601 386.86 347.601Z" fill="#E4E4E4"/>
<path d="M386.86 391.581H149.52C148.22 391.581 146.973 391.064 146.053 390.145C145.134 389.225 144.617 387.978 144.617 386.677C144.617 385.377 145.134 384.13 146.053 383.21C146.973 382.291 148.22 381.774 149.52 381.774H386.86C388.16 381.774 389.408 382.291 390.327 383.21C391.247 384.13 391.763 385.377 391.763 386.677C391.763 387.978 391.247 389.225 390.327 390.145C389.408 391.064 388.16 391.581 386.86 391.581Z" fill="#E4E4E4"/>
<path d="M386.86 410.955H149.521C148.22 410.955 146.973 410.439 146.053 409.519C145.134 408.599 144.617 407.352 144.617 406.052C144.617 404.751 145.134 403.504 146.053 402.585C146.973 401.665 148.22 401.148 149.521 401.148H386.86C388.161 401.148 389.408 401.665 390.327 402.585C391.247 403.504 391.764 404.751 391.764 406.052C391.764 407.352 391.247 408.599 390.327 409.519C389.408 410.439 388.161 410.955 386.86 410.955Z" fill="#E4E4E4"/>
<path d="M386.819 464.622H321.65C320.349 464.622 319.102 464.106 318.183 463.186C317.263 462.266 316.747 461.019 316.747 459.719C316.747 458.418 317.263 457.171 318.183 456.252C319.102 455.332 320.349 454.815 321.65 454.815H386.819C388.119 454.815 389.366 455.332 390.286 456.252C391.205 457.171 391.722 458.418 391.722 459.719C391.722 461.019 391.205 462.266 390.286 463.186C389.366 464.106 388.119 464.622 386.819 464.622Z" fill="#00ADB5"/>
<path d="M213.033 162.918C213.046 173.448 209.482 183.67 202.923 191.908C200.802 194.59 198.387 197.025 195.723 199.168C188.454 205.065 179.572 208.627 170.243 209.388C168.973 209.498 167.693 209.548 166.402 209.548C163.846 209.549 161.294 209.338 158.773 208.918C157.883 208.778 157.013 208.608 156.143 208.408C154.628 208.071 153.133 207.654 151.663 207.158C146.895 205.571 142.417 203.221 138.402 200.198C137.333 199.398 136.303 198.548 135.303 197.648C134.08 196.563 132.921 195.408 131.833 194.188C131.543 193.868 131.253 193.538 130.973 193.208C126.093 187.497 122.666 180.692 120.983 173.372C119.3 166.051 119.411 158.432 121.306 151.164C123.201 143.895 126.825 137.192 131.868 131.626C136.912 126.059 143.226 121.794 150.273 119.193C157.319 116.592 164.89 115.732 172.341 116.687C179.791 117.642 186.901 120.383 193.064 124.676C199.227 128.97 204.262 134.69 207.738 141.348C211.215 148.007 213.032 155.407 213.033 162.918Z" fill="#E4E4E4"/>
<path d="M164.78 178.832C175.333 178.832 183.889 170.277 183.889 159.723C183.889 149.17 175.333 140.614 164.78 140.614C154.226 140.614 145.671 149.17 145.671 159.723C145.671 170.277 154.226 178.832 164.78 178.832Z" fill="#9E616A"/>
<path d="M186.053 150.408C186.14 148.701 185.658 147.013 184.683 145.608L183.993 144.628C181.503 139.828 177.393 135.508 174.383 132.348C172.123 129.978 169.863 128.838 167.693 128.948C166.114 129.061 164.643 129.795 163.603 130.988C160.745 130.814 157.898 131.477 155.412 132.896C152.925 134.315 150.906 136.429 149.603 138.978C140.453 143.808 143.183 158.068 143.213 158.218L145.423 161.928L145.673 161.458C145.673 161.448 145.703 161.408 145.743 161.328C146.173 160.558 148.513 156.278 150.093 153.568C150.67 152.644 151.437 151.853 152.343 151.248C153.823 150.237 155.524 149.596 157.303 149.378L162.163 148.748L160.323 151.508H173.563L178.653 150.908C179.163 152.998 183.203 161.108 183.693 162.088L183.733 162.168L184.003 162.718L185.513 158.568C186.395 155.941 186.581 153.129 186.053 150.408Z" fill="#2F2E41"/>
<path d="M138.543 200.298C139.363 199.218 143.613 194.178 153.393 191.508L158.573 185.738L179.343 182.428L189.913 188.268L202.923 191.908C200.802 194.59 198.387 197.025 195.723 199.168C188.454 205.065 179.572 208.627 170.243 209.388C168.973 209.498 167.693 209.548 166.403 209.548C163.846 209.549 161.294 209.338 158.773 208.918C157.883 208.778 157.013 208.608 156.143 208.408C154.628 208.071 153.133 207.654 151.663 207.158C146.949 205.592 142.519 203.276 138.543 200.298C138.493 200.268 138.453 200.228 138.403 200.198L138.543 200.298Z" fill="#00ADB5"/>
<path d="M532.709 23.3887H2.96725C2.18055 23.3878 1.42632 23.0749 0.870041 22.5186C0.313759 21.9623 0.00085761 21.2081 0 20.4214V2.96725C0.00085761 2.18055 0.313759 1.42631 0.870041 0.870033C1.42632 0.313752 2.18055 0.00085761 2.96725 0H532.709C533.495 0.00085761 534.25 0.313752 534.806 0.870033C535.362 1.42631 535.675 2.18055 535.676 2.96725V20.4214C535.675 21.2081 535.362 21.9623 534.806 22.5186C534.25 23.0749 533.495 23.3878 532.709 23.3887Z" fill="#00ADB5"/>
<path d="M517.042 7.94328H498.628C498.268 7.9402 497.925 7.79514 497.671 7.53968C497.418 7.28423 497.276 6.93907 497.276 6.57933C497.276 6.2196 497.418 5.87443 497.671 5.61898C497.925 5.36352 498.268 5.21846 498.628 5.21538H517.042C517.222 5.21384 517.4 5.24798 517.567 5.31584C517.734 5.38369 517.886 5.48391 518.014 5.61072C518.141 5.73753 518.243 5.88841 518.312 6.05465C518.382 6.2209 518.417 6.39923 518.417 6.57933C518.417 6.75944 518.382 6.93776 518.312 7.10401C518.243 7.27026 518.141 7.42114 518.014 7.54795C517.886 7.67476 517.734 7.77498 517.567 7.84283C517.4 7.91068 517.222 7.94482 517.042 7.94328Z" fill="white"/>
<path d="M517.042 13.058H498.628C498.266 13.058 497.919 12.9143 497.664 12.6585C497.408 12.4027 497.264 12.0558 497.264 11.6941C497.264 11.3323 497.408 10.9854 497.664 10.7296C497.919 10.4738 498.266 10.3301 498.628 10.3301H517.042C517.222 10.3286 517.4 10.3627 517.567 10.4306C517.734 10.4984 517.886 10.5987 518.013 10.7255C518.141 10.8523 518.243 11.0032 518.312 11.1694C518.381 11.3356 518.417 11.514 518.417 11.6941C518.417 11.8742 518.381 12.0525 518.312 12.2188C518.243 12.385 518.141 12.5359 518.013 12.6627C517.886 12.7895 517.734 12.8897 517.567 12.9576C517.4 13.0254 517.222 13.0596 517.042 13.058Z" fill="white"/>
<path d="M517.042 18.1732H498.628C498.268 18.1703 497.924 18.0253 497.671 17.7698C497.418 17.5144 497.275 17.1691 497.275 16.8093C497.275 16.4494 497.418 16.1042 497.671 15.8487C497.924 15.5932 498.268 15.4482 498.628 15.4453H517.042C517.402 15.4482 517.746 15.5932 517.999 15.8487C518.252 16.1042 518.395 16.4494 518.395 16.8093C518.395 17.1691 518.252 17.5144 517.999 17.7698C517.746 18.0253 517.402 18.1703 517.042 18.1732Z" fill="white"/>
<path d="M662.476 469.372C661.629 468.45 660.994 467.353 660.616 466.159C660.238 464.965 660.127 463.703 660.29 462.461C660.453 461.219 660.886 460.029 661.559 458.972C662.232 457.916 663.128 457.02 664.184 456.348L657.164 426.727L672.023 432.155L676.411 459.452C677.423 461.302 677.721 463.458 677.249 465.513C676.777 467.568 675.568 469.379 673.85 470.601C672.132 471.824 670.026 472.374 667.929 472.148C665.833 471.921 663.893 470.933 662.476 469.372Z" fill="#9E616A"/>
<path d="M626.746 345.245L632.709 360.578C632.709 360.578 630.154 375.912 634.413 379.32C638.672 382.727 636.969 382.727 636.969 385.283C637.115 387.116 637.646 388.898 638.527 390.512C639.407 392.127 640.618 393.538 642.08 394.653C645.487 397.209 660.821 449.173 660.821 449.173H676.155C675.659 445.213 675.659 441.207 676.155 437.247C677.007 431.284 673.599 415.95 671.895 413.395C670.192 410.839 671.895 407.431 671.895 402.32C671.895 397.209 668.488 394.653 668.488 386.135C668.488 377.616 658.265 311.17 659.117 303.503C659.969 295.836 650.599 289.021 650.599 289.021H642.08L626.746 345.245Z" fill="#E4E4E4"/>
<path d="M665.96 669.223H654.628L649.237 625.511L665.962 625.512L665.96 669.223Z" fill="#9E616A"/>
<path d="M668.851 680.208L632.31 680.207V679.745C632.31 675.973 633.808 672.355 636.476 669.688C639.143 667.021 642.76 665.522 646.532 665.522L653.208 660.458L665.662 665.523L668.851 665.523L668.851 680.208Z" fill="#2F2E41"/>
<path d="M562.289 668.899L551.646 665.005L561.599 622.102L577.307 627.849L562.289 668.899Z" fill="#9E616A"/>
<path d="M561.23 680.208L526.913 667.654L527.072 667.22C528.368 663.677 531.018 660.795 534.439 659.206C537.86 657.618 541.773 657.453 545.315 658.749L553.324 656.287L563.28 665.321L566.275 666.417L561.23 680.208Z" fill="#2F2E41"/>
<path d="M640.993 464.822C640.993 464.822 633.326 502.305 646.104 498.897C658.882 495.49 653.771 463.119 653.771 463.119L640.993 464.822Z" fill="#A0616A"/>
<path d="M584.769 433.729C584.769 433.729 574.547 447.359 574.547 455.026C574.547 462.693 571.139 530.843 571.139 530.843C571.139 530.843 545.274 632.326 550.386 637.437C555.497 642.549 573.386 647.66 575.942 645.104C578.497 642.549 600.955 537.658 600.955 537.658L622.252 480.582L641.845 562.362L643.548 649.253C643.548 649.253 664.845 654.364 669.105 650.957C673.364 647.549 674.216 564.918 669.105 535.954C663.993 506.99 669.956 440.544 669.956 440.544L584.769 433.729Z" fill="#2F2E41"/>
<path d="M618.932 251.854C633.046 251.854 644.488 240.412 644.488 226.298C644.488 212.183 633.046 200.741 618.932 200.741C604.818 200.741 593.376 212.183 593.376 226.298C593.376 240.412 604.818 251.854 618.932 251.854Z" fill="#9E616A"/>
<path d="M586.473 288.91C586.473 288.91 593.831 277.947 608.313 263.465C615.98 260.909 629.264 262.399 633.869 263.465C655.166 291.577 656.506 289.708 662.05 305.415C663.488 309.488 664.206 313.402 663.568 316.596C661.012 329.374 669.105 432.877 669.956 436.285C670.808 439.692 676.771 443.951 670.808 443.951C664.845 443.951 574.547 440.544 576.25 437.988C577.954 435.433 586.473 288.91 586.473 288.91Z" fill="#E4E4E4"/>
<path opacity="0.1" d="M582.572 436.864L608.196 380.486L595.384 440.445L582.572 436.864Z" fill="black"/>
<path d="M611.201 249.974C613.593 248.193 615.796 246.171 617.775 243.94C619.762 241.688 621.006 238.879 621.337 235.894C621.482 234.406 621.248 232.906 620.658 231.533C620.067 230.159 619.138 228.958 617.958 228.04C615.524 226.32 611.812 226.42 609.792 228.611C610.768 225.456 611.66 221.734 609.683 219.088C607.883 216.68 604.527 216.271 601.628 215.477C596.036 213.921 591.226 210.337 588.134 205.425L593.057 206.444L592.508 202.934L596.588 204.352L596.624 199.464L600.835 201.82C605.99 197.094 612.784 194.563 619.774 194.763C623.301 194.822 626.755 195.77 629.817 197.52C632.885 199.295 635.209 202.119 636.36 205.471C638.527 203.222 642.392 203.396 644.974 205.154C647.556 206.912 649.073 209.853 650.114 212.799C652.177 218.447 652.657 224.551 651.502 230.452C650.314 236.367 647.127 241.693 642.476 245.535C638.205 248.795 633.12 250.818 627.776 251.383C622.454 251.935 617.081 251.705 611.826 250.701" fill="#2F2E41"/>
<path d="M574.594 469.261C575.442 468.339 576.077 467.243 576.454 466.049C576.832 464.855 576.943 463.593 576.781 462.351C576.618 461.109 576.185 459.918 575.512 458.862C574.839 457.806 573.942 456.91 572.886 456.238L579.906 426.617L565.048 432.045L560.659 459.342C559.647 461.191 559.349 463.348 559.821 465.403C560.293 467.458 561.503 469.268 563.22 470.491C564.938 471.714 567.045 472.264 569.141 472.037C571.237 471.811 573.177 470.823 574.594 469.261Z" fill="#9E616A"/>
<path d="M594.992 288.91H586.473C586.473 288.91 577.102 295.725 577.954 303.392C578.806 311.059 568.584 377.505 568.584 386.024C568.584 394.543 565.176 397.098 565.176 402.21C565.176 407.321 566.88 410.728 565.176 413.284C563.472 415.84 560.065 431.173 560.917 437.136C561.412 441.096 561.412 445.103 560.917 449.063H576.25C576.25 449.063 591.584 397.098 594.992 394.543C596.453 393.427 597.664 392.016 598.545 390.401C599.425 388.787 599.956 387.005 600.103 385.172C600.103 382.617 598.399 382.616 602.658 379.209C606.918 375.801 604.362 360.468 604.362 360.468L610.325 345.134L594.992 288.91Z" fill="#E4E4E4"/>
<path d="M835.973 682.584H368.679C368.522 682.585 368.367 682.555 368.222 682.495C368.077 682.435 367.945 682.348 367.834 682.237C367.723 682.126 367.635 681.995 367.575 681.85C367.515 681.706 367.484 681.55 367.484 681.394C367.484 681.237 367.515 681.082 367.575 680.937C367.635 680.793 367.723 680.661 367.834 680.551C367.945 680.44 368.077 680.352 368.222 680.293C368.367 680.233 368.522 680.203 368.679 680.203H835.973C836.129 680.203 836.284 680.233 836.429 680.293C836.574 680.352 836.706 680.44 836.817 680.551C836.928 680.661 837.016 680.793 837.076 680.937C837.136 681.082 837.167 681.237 837.167 681.394C837.167 681.55 837.136 681.706 837.076 681.85C837.016 681.995 836.928 682.126 836.817 682.237C836.706 682.348 836.574 682.435 836.429 682.495C836.284 682.555 836.129 682.585 835.973 682.584Z" fill="#CACACA"/>
</svg>
