<svg width="121" height="103" viewBox="0 0 121 103" fill="none" xmlns="http://www.w3.org/2000/svg">
<rect width="121" height="103" rx="16" fill="white"/>
<path d="M60.5 51.5003C57.2917 51.5003 54.5452 50.358 52.2604 48.0732C49.9757 45.7885 48.8334 43.042 48.8334 39.8337C48.8334 36.6253 49.9757 33.8788 52.2604 31.5941C54.5452 29.3094 57.2917 28.167 60.5 28.167C63.7084 28.167 66.4549 29.3094 68.7396 31.5941C71.0243 33.8788 72.1667 36.6253 72.1667 39.8337C72.1667 43.042 71.0243 45.7885 68.7396 48.0732C66.4549 50.358 63.7084 51.5003 60.5 51.5003ZM37.1667 74.8337V66.667C37.1667 65.0142 37.5925 63.4956 38.4442 62.1112C39.2959 60.7267 40.4256 59.6689 41.8334 58.9378C44.8472 57.4309 47.9097 56.3012 51.0209 55.5487C54.132 54.7962 57.2917 54.4189 60.5 54.417C63.7084 54.415 66.8681 54.7923 69.9792 55.5487C73.0903 56.305 76.1528 57.4348 79.1667 58.9378C80.5764 59.667 81.7071 60.7248 82.5588 62.1112C83.4104 63.4975 83.8353 65.0162 83.8334 66.667V74.8337H37.1667Z" fill="#C8C8C8"/>
</svg>
