<svg width="22" height="28" viewBox="0 0 22 28" fill="none" xmlns="http://www.w3.org/2000/svg">
<g id="Group">
<path id="Vector" d="M5.75 17.75C5.55109 17.75 5.36032 17.671 5.21967 17.5303C5.07902 17.3897 5 17.1989 5 17C5 16.8011 5.07902 16.6103 5.21967 16.4697C5.36032 16.329 5.55109 16.25 5.75 16.25H16.25C16.4489 16.25 16.6397 16.329 16.7803 16.4697C16.921 16.6103 17 16.8011 17 17C17 17.1989 16.921 17.3897 16.7803 17.5303C16.6397 17.671 16.4489 17.75 16.25 17.75H5.75ZM5.75 21.5C5.55109 21.5 5.36032 21.421 5.21967 21.2803C5.07902 21.1397 5 20.9489 5 20.75C5 20.5511 5.07902 20.3603 5.21967 20.2197C5.36032 20.079 5.55109 20 5.75 20H16.25C16.4489 20 16.6397 20.079 16.7803 20.2197C16.921 20.3603 17 20.5511 17 20.75C17 20.9489 16.921 21.1397 16.7803 21.2803C16.6397 21.421 16.4489 21.5 16.25 21.5H5.75Z" fill="#222831"/>
<path id="Vector_2" fill-rule="evenodd" clip-rule="evenodd" d="M12.7775 0.5H2.75C2.15326 0.5 1.58097 0.737053 1.15901 1.15901C0.737053 1.58097 0.5 2.15326 0.5 2.75V25.25C0.5 25.8467 0.737053 26.419 1.15901 26.841C1.58097 27.2629 2.15326 27.5 2.75 27.5H19.25C19.8467 27.5 20.419 27.2629 20.841 26.841C21.2629 26.419 21.5 25.8467 21.5 25.25V9.803C21.4999 9.23971 21.2884 8.69696 20.9075 8.282L14.4365 1.229C14.2256 0.999118 13.9692 0.815601 13.6836 0.690102C13.398 0.564603 13.0895 0.499866 12.7775 0.5ZM2 2.75C2 2.55109 2.07902 2.36032 2.21967 2.21967C2.36032 2.07902 2.55109 2 2.75 2H12.7775C12.8816 1.99989 12.9845 2.02143 13.0798 2.06327C13.1751 2.1051 13.2606 2.16631 13.331 2.243L19.802 9.296C19.9292 9.43424 19.9998 9.61517 20 9.803V25.25C20 25.4489 19.921 25.6397 19.7803 25.7803C19.6397 25.921 19.4489 26 19.25 26H2.75C2.55109 26 2.36032 25.921 2.21967 25.7803C2.07902 25.6397 2 25.4489 2 25.25V2.75Z" fill="#222831"/>
<path id="Vector_3" d="M13.25 2.1499V9.1999H20.3" stroke="#222831" stroke-linecap="round" stroke-linejoin="round"/>
<path id="Vector_4" d="M8.20092 8.19927C8.41513 8.20583 8.62847 8.16931 8.82829 8.09186C9.02811 8.01442 9.21034 7.89764 9.36418 7.74844C9.51802 7.59924 9.64033 7.42067 9.72385 7.22331C9.80738 7.02595 9.85041 6.81383 9.85041 6.59952C9.85041 6.38522 9.80738 6.1731 9.72385 5.97574C9.64033 5.77838 9.51802 5.59981 9.36418 5.45061C9.21034 5.30141 9.02811 5.18463 8.82829 5.10718C8.62847 5.02974 8.41513 4.99321 8.20092 4.99977C7.78512 5.01251 7.39061 5.18663 7.101 5.48525C6.81138 5.78388 6.64941 6.18353 6.64941 6.59952C6.64941 7.01552 6.81138 7.41517 7.101 7.71379C7.39061 8.01241 7.78512 8.18654 8.20092 8.19927Z" fill="#222831"/>
<path id="Vector_5" fill-rule="evenodd" clip-rule="evenodd" d="M11.399 11.6659C11.399 9.9649 9.9665 8.7334 8.1995 8.7334C6.4325 8.7334 5 9.9634 5 11.6659V12.4669C5.0004 12.6083 5.05683 12.7437 5.15693 12.8435C5.25704 12.9433 5.39263 12.9994 5.534 12.9994H10.8665C11.0076 12.999 11.1428 12.9428 11.2426 12.843C11.3424 12.7432 11.3986 12.608 11.399 12.4669V11.6659Z" fill="#222831"/>
</g>
</svg>
