<svg width="50" height="50" viewBox="0 0 50 50" fill="none" xmlns="http://www.w3.org/2000/svg">
<path fill-rule="evenodd" clip-rule="evenodd" d="M12.5002 12.5C11.3951 12.5 10.3353 12.939 9.55388 13.7204C8.77248 14.5018 8.3335 15.5616 8.3335 16.6667V22.9167C8.3335 24.0217 8.77248 25.0815 9.55388 25.8629C10.3353 26.6443 11.3951 27.0833 12.5002 27.0833H18.7502C18.7502 28.7409 18.0917 30.3306 16.9196 31.5028C15.7475 32.6749 14.1578 33.3333 12.5002 33.3333H10.4168C9.86429 33.3333 9.33439 33.5528 8.94369 33.9435C8.55299 34.3342 8.3335 34.8641 8.3335 35.4167C8.3335 35.9692 8.55299 36.4991 8.94369 36.8898C9.33439 37.2805 9.86429 37.5 10.4168 37.5H12.5002C15.2628 37.5 17.9124 36.4025 19.8659 34.449C21.8194 32.4955 22.9168 29.846 22.9168 27.0833V16.6667C22.9168 15.5616 22.4778 14.5018 21.6964 13.7204C20.915 12.939 19.8552 12.5 18.7502 12.5H12.5002ZM31.2502 12.5C30.1451 12.5 29.0853 12.939 28.3039 13.7204C27.5225 14.5018 27.0835 15.5616 27.0835 16.6667V22.9167C27.0835 24.0217 27.5225 25.0815 28.3039 25.8629C29.0853 26.6443 30.1451 27.0833 31.2502 27.0833H37.5002C37.5002 28.7409 36.8417 30.3306 35.6696 31.5028C34.4975 32.6749 32.9078 33.3333 31.2502 33.3333H29.1668C28.6143 33.3333 28.0844 33.5528 27.6937 33.9435C27.303 34.3342 27.0835 34.8641 27.0835 35.4167C27.0835 35.9692 27.303 36.4991 27.6937 36.8898C28.0844 37.2805 28.6143 37.5 29.1668 37.5H31.2502C34.0128 37.5 36.6624 36.4025 38.6159 34.449C40.5694 32.4955 41.6668 29.846 41.6668 27.0833V16.6667C41.6668 15.5616 41.2278 14.5018 40.4464 13.7204C39.665 12.939 38.6052 12.5 37.5002 12.5H31.2502Z" fill="#FFC700"/>
</svg>
