<svg width="365" height="109" viewBox="0 0 365 109" fill="none" xmlns="http://www.w3.org/2000/svg">
<path d="M0.925374 49.3621C-1.02047 34.1026 8.89106 19.8441 23.8723 16.351L86.092 1.84382C91.2708 0.636333 96.6775 0.82709 101.758 2.39656L182.413 27.3109C187.068 28.7486 192.002 29.0313 196.79 28.1345L345.651 0.252657C346.548 0.0845804 347.459 0 348.372 0C358.774 0 365.923 10.4589 362.145 20.1506L350.348 50.4109C348.26 55.7684 349.021 61.8186 352.373 66.4913L362.417 80.4969C368.79 89.3838 360.121 101.25 349.717 97.8802C347.934 97.3024 346.035 97.1762 344.19 97.5129L286.672 108.012C284.894 108.337 283.091 108.5 281.284 108.5H162L65.5 97H33.4174C18.316 97 5.56861 85.7749 3.65839 70.7948L0.925374 49.3621Z" fill="#003E41"/>
</svg>
