<svg width="27" height="22" viewBox="0 0 27 22" fill="none" xmlns="http://www.w3.org/2000/svg">
<path id="Vector" d="M26.4 2.875C25.4375 3.3125 24.4 3.6 23.325 3.7375C24.425 3.075 25.275 2.025 25.675 0.7625C24.6375 1.3875 23.4875 1.825 22.275 2.075C21.2875 1 19.9 0.375 18.325 0.375C15.3875 0.375 12.9875 2.775 12.9875 5.7375C12.9875 6.1625 13.0375 6.575 13.125 6.9625C8.675 6.7375 4.7125 4.6 2.075 1.3625C1.6125 2.15 1.35 3.075 1.35 4.05C1.35 5.9125 2.2875 7.5625 3.7375 8.5C2.85 8.5 2.025 8.25 1.3 7.875V7.9125C1.3 10.5125 3.15 12.6875 5.6 13.175C4.81355 13.3912 3.98755 13.4211 3.1875 13.2625C3.52701 14.3281 4.19192 15.2605 5.08877 15.9287C5.98562 16.5968 7.06931 16.9671 8.1875 16.9875C6.29209 18.4881 3.94251 19.2992 1.525 19.2875C1.1 19.2875 0.675 19.2625 0.25 19.2125C2.625 20.7375 5.45 21.625 8.475 21.625C18.325 21.625 23.7375 13.45 23.7375 6.3625C23.7375 6.125 23.7375 5.9 23.725 5.6625C24.775 4.9125 25.675 3.9625 26.4 2.875Z" fill="#222831"/>
</svg>
